<svg width="16" height="14" viewBox="0 0 16 14" fill="none" xmlns="http://www.w3.org/2000/svg">
<path d="M0.116699 6.99854C0.116699 6.74951 0.224609 6.50049 0.415527 6.32617L5.86914 0.864258C6.08496 0.656738 6.30908 0.57373 6.5332 0.57373C7.05615 0.57373 7.42969 0.938965 7.42969 1.43701C7.42969 1.69434 7.33008 1.91846 7.16406 2.08447L5.30469 3.96875L2.85596 6.20996L4.79004 6.09375H14.8838C15.4233 6.09375 15.8052 6.45898 15.8052 6.99854C15.8052 7.52979 15.4233 7.90332 14.8838 7.90332H4.79004L2.84766 7.78711L5.30469 10.0283L7.16406 11.9126C7.33008 12.0703 7.42969 12.2944 7.42969 12.5518C7.42969 13.0498 7.05615 13.4233 6.5332 13.4233C6.30908 13.4233 6.08496 13.332 5.88574 13.1411L0.415527 7.6709C0.224609 7.48828 0.116699 7.24756 0.116699 6.99854Z" fill="white"/>
</svg>
