<svg width="31" height="36" viewBox="0 0 31 36" fill="none" xmlns="http://www.w3.org/2000/svg">
<path d="M3.69648 16.7164C1.88716 18.5257 1.88716 21.4592 3.69649 23.2685L3.79266 23.3647C5.65511 25.2271 8.67472 25.2271 10.5372 23.3647L13.7171 20.1848L10.2486 16.7164C8.43931 14.907 5.50581 14.907 3.69648 16.7164Z" fill="#3D3A44"/>
<path d="M12.1758 31.668C14.0017 33.4939 16.9798 33.4763 18.8057 31.6504C20.6512 29.8048 20.669 26.7948 18.8235 24.9493L15.5529 21.6787L12.1758 25.0557C10.3499 26.8817 10.3499 29.8421 12.1758 31.668Z" fill="#3D3A44"/>
<path d="M18.7182 8.2263C16.8923 6.40037 13.9143 6.41801 12.0883 8.24393C10.2428 10.0894 10.225 13.0994 12.0705 14.945L15.3412 18.2156L18.7182 14.8386C20.5442 13.0126 20.5442 10.0522 18.7182 8.2263Z" fill="#3D3A44"/>
<path d="M27.0652 23.3103C28.8746 21.5009 28.8746 18.5674 27.0652 16.7581L26.9691 16.6619C25.1066 14.7995 22.087 14.7995 20.2246 16.6619L17.0447 19.8418L20.5131 23.3103C22.3224 25.1196 25.2559 25.1196 27.0652 23.3103Z" fill="#3D3A44"/>
</svg>
