<svg width="20" height="20" viewBox="0 0 20 20" fill="none" xmlns="http://www.w3.org/2000/svg">
<path d="M15.3728 15.2112L14.949 14.4937L15.3728 15.2112ZM15.7824 14.4937H14.949H15.7824ZM9.13792 17.836L8.69087 18.5392L9.13792 17.836ZM10.8794 17.8645L11.3032 18.5821L10.8794 17.8645ZM1.58666 6.78035L1.16006 6.0645L1.58666 6.78035ZM1.58666 7.49621L1.16006 8.21207H1.16006L1.58666 7.49621ZM10.4265 12.2558L10.8531 12.9716L10.4265 12.2558ZM9.57331 12.2558L9.99992 11.5399L9.57331 12.2558ZM18.4132 6.78035L18.8398 6.0645L18.4132 6.78035ZM18.4132 7.49621L17.9866 6.78035L18.4132 7.49621ZM5.01457 15.2149L5.46161 14.5116L5.01457 15.2149ZM10.4265 2.0208L9.99992 2.73665V2.73665L10.4265 2.0208ZM9.57331 2.0208L9.99992 2.73665L9.57331 2.0208ZM19.3333 7.12441C19.3333 6.66417 18.9602 6.29108 18.4999 6.29108C18.0397 6.29108 17.6666 6.66417 17.6666 7.12441H19.3333ZM17.6666 11.6244C17.6666 12.0846 18.0397 12.4577 18.4999 12.4577C18.9602 12.4577 19.3333 12.0846 19.3333 11.6244H17.6666ZM9.99992 2.73665L17.9866 7.49621L18.8398 6.0645L10.8531 1.30494L9.99992 2.73665ZM17.9866 6.78035L9.99992 11.5399L10.8531 12.9716L18.8398 8.21207L17.9866 6.78035ZM2.01327 7.49621L9.99992 2.73665L9.14671 1.30494L1.16006 6.0645L2.01327 7.49621ZM9.99992 11.5399L5.05488 8.59297L4.20167 10.0247L9.14671 12.9716L9.99992 11.5399ZM5.05488 8.59297L2.01327 6.78035L1.16006 8.21207L4.20167 10.0247L5.05488 8.59297ZM3.79494 9.30883V14.5116H5.46161V9.30883H3.79494ZM4.56753 15.9182L8.69087 18.5392L9.58496 17.1327L5.46161 14.5116L4.56753 15.9182ZM11.3032 18.5821L15.7965 15.9288L14.949 14.4937L10.4557 17.147L11.3032 18.5821ZM16.6157 14.4937L16.6157 9.30883L14.949 9.30883L14.949 14.4937H16.6157ZM15.7965 15.9288C16.3042 15.629 16.6157 15.0833 16.6157 14.4937H14.949L15.7965 15.9288ZM8.69087 18.5392C9.48431 19.0436 10.4936 19.0601 11.3032 18.5821L10.4557 17.147C10.1859 17.3063 9.84943 17.3008 9.58496 17.1327L8.69087 18.5392ZM1.16006 6.0645C0.346602 6.54927 0.346607 7.7273 1.16006 8.21207L2.01327 6.78035C2.28442 6.94194 2.28442 7.33462 2.01327 7.49621L1.16006 6.0645ZM9.99992 11.5399H9.99992L9.14671 12.9716C9.67238 13.2849 10.3275 13.2849 10.8531 12.9716L9.99992 11.5399ZM17.9866 7.49621C17.7154 7.33462 17.7154 6.94194 17.9866 6.78035L18.8398 8.21207C19.6532 7.7273 19.6532 6.54926 18.8398 6.0645L17.9866 7.49621ZM3.79494 14.5116C3.79494 15.0818 4.08637 15.6123 4.56753 15.9182L5.46161 14.5116V14.5116H3.79494ZM10.8531 1.30494C10.3275 0.99167 9.67238 0.991669 9.14671 1.30494L9.99992 2.73665L9.99992 2.73665L10.8531 1.30494ZM17.6666 7.12441V11.6244H19.3333V7.12441H17.6666Z" fill="black"/>
</svg>
