<svg width="31" height="35" viewBox="0 0 31 35" fill="none" xmlns="http://www.w3.org/2000/svg">
<path d="M3.35347 16.2164C1.54414 18.0257 1.54414 20.9592 3.35347 22.7685L3.44964 22.8647C5.31209 24.7271 8.3317 24.7271 10.1941 22.8647L13.374 19.6848L9.90561 16.2164C8.09629 14.407 5.16279 14.407 3.35347 16.2164Z" fill="#3D3A44"/>
<path d="M11.8327 31.168C13.6586 32.9939 16.6366 32.9763 18.4626 31.1504C20.3081 29.3048 20.3259 26.2948 18.4804 24.4493L15.2097 21.1787L11.8327 24.5557C10.0067 26.3817 10.0067 29.3421 11.8327 31.168Z" fill="#3D3A44"/>
<path d="M18.375 7.7263C16.5491 5.90037 13.571 5.91801 11.7451 7.74393C9.89957 9.58945 9.88174 12.5994 11.7273 14.445L14.9979 17.7156L18.375 14.3386C20.2009 12.5126 20.2009 9.55222 18.375 7.7263Z" fill="#3D3A44"/>
<path d="M26.722 22.8103C28.5313 21.0009 28.5313 18.0674 26.722 16.2581L26.6258 16.1619C24.7634 14.2995 21.7437 14.2995 19.8813 16.1619L16.7014 19.3418L20.1698 22.8103C21.9791 24.6196 24.9126 24.6196 26.722 22.8103Z" fill="#3D3A44"/>
</svg>
