<svg width="13" height="7" viewBox="0 0 13 7" fill="none" xmlns="http://www.w3.org/2000/svg">
<path d="M6.3252 6.97168C6.06494 6.97168 5.84912 6.87012 5.63965 6.66699L0.866211 1.7793C0.70752 1.61426 0.618652 1.41748 0.618652 1.18262C0.618652 0.706543 0.999512 0.319336 1.46924 0.319336C1.71045 0.319336 1.92627 0.420898 2.09766 0.592285L6.33154 4.93408L10.5527 0.592285C10.7241 0.420898 10.9463 0.319336 11.1748 0.319336C11.6509 0.319336 12.0317 0.706543 12.0317 1.18262C12.0317 1.41748 11.9492 1.61426 11.7842 1.7793L7.01074 6.66064C6.80762 6.87012 6.58545 6.97168 6.3252 6.97168Z" fill="black"/>
</svg>
