<svg width="31" height="32" viewBox="0 0 31 32" fill="none" xmlns="http://www.w3.org/2000/svg">
<path d="M3.69648 12.7161C1.88716 14.5254 1.88716 17.4589 3.69649 19.2683L3.79266 19.3644C5.65511 21.2269 8.67472 21.2269 10.5372 19.3644L13.7171 16.1845L10.2486 12.7161C8.43931 10.9068 5.50581 10.9068 3.69648 12.7161Z" fill="#3D3A44"/>
<path d="M12.1758 27.6675C14.0017 29.4934 16.9798 29.4758 18.8057 27.6499C20.6512 25.8044 20.669 22.7944 18.8235 20.9488L15.5529 17.6782L12.1758 21.0552C10.3499 22.8812 10.3499 25.8416 12.1758 27.6675Z" fill="#3D3A44"/>
<path d="M18.7182 4.22605C16.8923 2.40013 13.9143 2.41777 12.0883 4.24369C10.2428 6.0892 10.225 9.0992 12.0705 10.9447L15.3412 14.2154L18.7182 10.8383C20.5442 9.01239 20.5442 6.05198 18.7182 4.22605Z" fill="#3D3A44"/>
<path d="M27.0652 19.3103C28.8746 17.5009 28.8746 14.5674 27.0652 12.7581L26.9691 12.6619C25.1066 10.7995 22.087 10.7995 20.2246 12.6619L17.0447 15.8418L20.5131 19.3103C22.3224 21.1196 25.2559 21.1196 27.0652 19.3103Z" fill="#3D3A44"/>
</svg>
