<svg width="31" height="32" viewBox="0 0 31 32" fill="none" xmlns="http://www.w3.org/2000/svg">
<path d="M3.69648 12.7164C1.88716 14.5257 1.88716 17.4592 3.69649 19.2685L3.79266 19.3647C5.65511 21.2271 8.67472 21.2271 10.5372 19.3647L13.7171 16.1848L10.2486 12.7164C8.43931 10.907 5.50581 10.907 3.69648 12.7164Z" fill="#3D3A44"/>
<path d="M12.1758 27.668C14.0017 29.4939 16.9798 29.4763 18.8057 27.6504C20.6512 25.8048 20.669 22.7948 18.8235 20.9493L15.5529 17.6787L12.1758 21.0557C10.3499 22.8817 10.3499 25.8421 12.1758 27.668Z" fill="#3D3A44"/>
<path d="M18.7182 4.2263C16.8923 2.40037 13.9143 2.41801 12.0883 4.24393C10.2428 6.08945 10.225 9.09944 12.0705 10.945L15.3412 14.2156L18.7182 10.8386C20.5442 9.01263 20.5442 6.05222 18.7182 4.2263Z" fill="#3D3A44"/>
<path d="M27.0652 19.3103C28.8746 17.5009 28.8746 14.5674 27.0652 12.7581L26.9691 12.6619C25.1066 10.7995 22.087 10.7995 20.2246 12.6619L17.0447 15.8418L20.5131 19.3103C22.3224 21.1196 25.2559 21.1196 27.0652 19.3103Z" fill="#3D3A44"/>
</svg>
