<svg width="106" height="40" viewBox="0 0 106 40" fill="none" xmlns="http://www.w3.org/2000/svg">
<g clip-path="url(#clip0_494_1407)">
<path d="M3.69648 17.7164C1.88716 19.5257 1.88716 22.4592 3.69649 24.2685L3.79266 24.3647C5.65511 26.2271 8.67472 26.2271 10.5372 24.3647L13.7171 21.1848L10.2486 17.7164C8.43931 15.907 5.50581 15.907 3.69648 17.7164Z" fill="#3D3A44"/>
<path d="M12.1758 32.668C14.0017 34.4939 16.9798 34.4763 18.8057 32.6504C20.6512 30.8048 20.669 27.7948 18.8235 25.9493L15.5529 22.6787L12.1758 26.0557C10.3499 27.8817 10.3499 30.8421 12.1758 32.668Z" fill="#3D3A44"/>
<path d="M18.7182 9.2263C16.8923 7.40037 13.9143 7.41801 12.0883 9.24393C10.2428 11.0894 10.225 14.0994 12.0705 15.945L15.3412 19.2156L18.7182 15.8386C20.5442 14.0126 20.5442 11.0522 18.7182 9.2263Z" fill="#3D3A44"/>
<path d="M27.0652 24.3103C28.8746 22.5009 28.8746 19.5674 27.0652 17.7581L26.9691 17.6619C25.1066 15.7995 22.087 15.7995 20.2246 17.6619L17.0447 20.8418L20.5131 24.3103C22.3224 26.1196 25.2559 26.1196 27.0652 24.3103Z" fill="#3D3A44"/>
<path d="M37.4067 28.225C36.9567 28.225 36.6234 28.1583 36.4067 28.025C36.2067 27.8917 36.0817 27.7083 36.0317 27.475C35.9817 27.2417 35.9567 26.9917 35.9567 26.725V17.375C35.9567 17.1083 35.9817 16.8667 36.0317 16.65C36.0817 16.4333 36.2151 16.2583 36.4317 16.125C36.6484 15.9917 36.9901 15.925 37.4567 15.925C37.9401 15.925 38.2901 16.025 38.5067 16.225C38.7401 16.425 38.8567 16.7417 38.8567 17.175L38.6317 17.875C38.7151 17.6917 38.8567 17.4917 39.0567 17.275C39.2567 17.0583 39.4984 16.8417 39.7817 16.625C40.0817 16.4083 40.4151 16.2333 40.7817 16.1C41.1484 15.9667 41.5317 15.9 41.9317 15.9C42.4817 15.9 42.9817 15.9917 43.4317 16.175C43.8984 16.3583 44.3067 16.625 44.6567 16.975C45.0234 17.325 45.3401 17.75 45.6067 18.25C45.8901 17.8167 46.2067 17.425 46.5567 17.075C46.9067 16.7083 47.3151 16.425 47.7817 16.225C48.2484 16.0083 48.7734 15.9 49.3567 15.9C50.3234 15.9 51.1317 16.1417 51.7817 16.625C52.4484 17.1083 52.9484 17.8 53.2817 18.7C53.6317 19.5833 53.8067 20.6417 53.8067 21.875V26.725C53.8067 27.0083 53.7734 27.2667 53.7067 27.5C53.6567 27.7167 53.5234 27.8917 53.3067 28.025C53.1067 28.1583 52.7734 28.225 52.3067 28.225C51.8401 28.225 51.4984 28.15 51.2817 28C51.0651 27.8667 50.9317 27.6917 50.8817 27.475C50.8317 27.2417 50.8067 26.9833 50.8067 26.7V21.85C50.8067 21.2333 50.7317 20.7 50.5817 20.25C50.4317 19.8 50.2067 19.45 49.9067 19.2C49.6234 18.95 49.2484 18.825 48.7817 18.825C48.2817 18.825 47.8484 18.95 47.4817 19.2C47.1317 19.4333 46.8567 19.775 46.6567 20.225C46.4567 20.675 46.3567 21.225 46.3567 21.875V26.75C46.3567 27.0333 46.3151 27.3 46.2317 27.55C46.1484 27.7833 45.9817 27.9583 45.7317 28.075C45.4984 28.2083 45.1567 28.2583 44.7067 28.225C44.2901 28.2083 43.9817 28.125 43.7817 27.975C43.5984 27.825 43.4817 27.6417 43.4317 27.425C43.3984 27.1917 43.3817 26.95 43.3817 26.7V21.85C43.3817 21.2333 43.3067 20.7 43.1567 20.25C43.0067 19.7833 42.7817 19.4333 42.4817 19.2C42.1984 18.95 41.8151 18.825 41.3317 18.825C40.8151 18.825 40.3734 18.9583 40.0067 19.225C39.6567 19.4917 39.3901 19.85 39.2067 20.3C39.0234 20.75 38.9317 21.2667 38.9317 21.85V26.75C38.9317 27.0167 38.8984 27.2667 38.8317 27.5C38.7817 27.7333 38.6484 27.9083 38.4317 28.025C38.2317 28.1583 37.8901 28.225 37.4067 28.225ZM66.5681 28.2C66.0847 28.2 65.7264 28.1083 65.4931 27.925C65.2597 27.7417 65.1431 27.4917 65.1431 27.175L65.3181 26.35C65.1847 26.5667 64.9597 26.825 64.6431 27.125C64.3264 27.4083 63.9097 27.6667 63.3931 27.9C62.8764 28.1167 62.2514 28.225 61.5181 28.225C60.7347 28.225 59.9931 28.0667 59.2931 27.75C58.6097 27.4167 58.0014 26.9667 57.4681 26.4C56.9514 25.8167 56.5347 25.1583 56.2181 24.425C55.9181 23.675 55.7681 22.875 55.7681 22.025C55.7681 21.2083 55.9181 20.4417 56.2181 19.725C56.5347 18.9917 56.9597 18.3417 57.4931 17.775C58.0264 17.2083 58.6347 16.7667 59.3181 16.45C60.0181 16.1167 60.7514 15.95 61.5181 15.95C62.2014 15.95 62.7764 16.0417 63.2431 16.225C63.7264 16.4083 64.1347 16.6417 64.4681 16.925C64.8014 17.1917 65.0764 17.475 65.2931 17.775L65.1431 17.05C65.1431 16.6833 65.2597 16.4083 65.4931 16.225C65.7264 16.025 66.0931 15.925 66.5931 15.925C67.0597 15.925 67.3931 16 67.5931 16.15C67.7931 16.2833 67.9181 16.475 67.9681 16.725C68.0181 16.9583 68.0431 17.225 68.0431 17.525V26.675C68.0431 26.9583 68.0181 27.2167 67.9681 27.45C67.9181 27.6833 67.7847 27.8667 67.5681 28C67.3681 28.1333 67.0347 28.2 66.5681 28.2ZM61.9681 25.3C62.5347 25.3 63.0431 25.1583 63.4931 24.875C63.9431 24.5917 64.3014 24.2083 64.5681 23.725C64.8514 23.225 64.9931 22.675 64.9931 22.075C64.9931 21.425 64.8514 20.8583 64.5681 20.375C64.2847 19.8917 63.9097 19.5167 63.4431 19.25C62.9931 18.9667 62.4847 18.825 61.9181 18.825C61.3014 18.825 60.7514 18.975 60.2681 19.275C59.7847 19.5583 59.4014 19.95 59.1181 20.45C58.8514 20.9333 58.7181 21.4833 58.7181 22.1C58.7181 22.7 58.8597 23.2417 59.1431 23.725C59.4264 24.2083 59.8097 24.5917 60.2931 24.875C60.7931 25.1583 61.3514 25.3 61.9681 25.3ZM76.6265 28.25C75.8098 28.25 75.1098 28.1667 74.5265 28C73.9431 27.8333 73.4681 27.575 73.1015 27.225C72.7348 26.875 72.4598 26.425 72.2765 25.875C72.1098 25.3083 72.0265 24.6417 72.0265 23.875V13.275C72.0265 12.975 72.0515 12.7167 72.1015 12.5C72.1681 12.2833 72.3015 12.1167 72.5015 12C72.7181 11.8667 73.0515 11.8 73.5015 11.8C73.9681 11.8 74.3015 11.8667 74.5015 12C74.7181 12.1333 74.8515 12.3167 74.9015 12.55C74.9681 12.7667 75.0015 13.0083 75.0015 13.275V23.775C75.0015 24.125 75.0265 24.4083 75.0765 24.625C75.1431 24.8417 75.2348 25.0083 75.3515 25.125C75.4848 25.225 75.6515 25.3 75.8515 25.35C76.0681 25.3833 76.3265 25.4 76.6265 25.4C76.9431 25.4 77.2098 25.425 77.4265 25.475C77.6598 25.525 77.8348 25.65 77.9515 25.85C78.0681 26.0333 78.1265 26.3417 78.1265 26.775C78.1265 27.2417 78.0515 27.5833 77.9015 27.8C77.7681 28 77.5848 28.125 77.3515 28.175C77.1348 28.225 76.8931 28.25 76.6265 28.25ZM71.0015 16.175L73.5765 16.2L77.0265 16.1C77.3098 16.1 77.5598 16.1333 77.7765 16.2C78.0098 16.25 78.1931 16.3833 78.3265 16.6C78.4598 16.8 78.5265 17.1333 78.5265 17.6C78.5265 18.0333 78.4598 18.3583 78.3265 18.575C78.1931 18.7917 78.0181 18.9333 77.8015 19C77.5848 19.05 77.3348 19.075 77.0515 19.075L73.7015 19.025L70.9265 19.05C70.5098 19.0333 70.2181 18.9167 70.0515 18.7C69.9015 18.4667 69.8265 18.0917 69.8265 17.575C69.8265 17.0917 69.9181 16.7417 70.1015 16.525C70.3015 16.2917 70.6015 16.175 71.0015 16.175ZM85.8521 28.3C85.0521 28.3 84.2687 28.1667 83.5021 27.9C82.7521 27.6167 82.0687 27.2083 81.4521 26.675C80.8521 26.1417 80.3687 25.4917 80.0021 24.725C79.6521 23.9417 79.4771 23.0583 79.4771 22.075C79.4771 21.0917 79.6521 20.2167 80.0021 19.45C80.3687 18.6833 80.8521 18.0333 81.4521 17.5C82.0521 16.9667 82.7271 16.5583 83.4771 16.275C84.2271 15.9917 85.0021 15.85 85.8021 15.85C86.3854 15.85 86.9354 15.9333 87.4521 16.1C87.9854 16.2667 88.4437 16.4667 88.8271 16.7C89.2104 16.9333 89.4854 17.1667 89.6521 17.4C89.8687 17.6 90.0521 17.7917 90.2021 17.975C90.3521 18.1583 90.4021 18.3833 90.3521 18.65C90.3021 18.8167 90.2271 18.975 90.1271 19.125C90.0271 19.2583 89.9021 19.4 89.7521 19.55C89.3521 20 88.9604 20.1667 88.5771 20.05C88.3604 19.9333 88.1437 19.8083 87.9271 19.675C87.7104 19.5417 87.4854 19.4167 87.2521 19.3C87.0354 19.1667 86.8104 19.0583 86.5771 18.975C86.3437 18.8917 86.0854 18.85 85.8021 18.85C85.1687 18.85 84.6021 18.9917 84.1021 19.275C83.6187 19.5417 83.2354 19.9167 82.9521 20.4C82.6854 20.8833 82.5521 21.4417 82.5521 22.075C82.5521 22.7083 82.6854 23.275 82.9521 23.775C83.2354 24.2583 83.6187 24.6417 84.1021 24.925C84.5854 25.1917 85.1354 25.325 85.7521 25.325C86.0521 25.325 86.3354 25.2917 86.6021 25.225C86.8854 25.1417 87.1354 25.0417 87.3521 24.925C87.5687 24.7917 87.7437 24.6583 87.8771 24.525C88.0604 24.4083 88.2271 24.3 88.3771 24.2C88.5271 24.1 88.6854 24.05 88.8521 24.05C89.0521 24.05 89.2437 24.125 89.4271 24.275C89.6271 24.4083 89.8437 24.625 90.0771 24.925C90.2937 25.175 90.4104 25.4167 90.4271 25.65C90.4604 25.8833 90.4104 26.1083 90.2771 26.325C90.1604 26.5417 89.9604 26.7417 89.6771 26.925C89.4771 27.125 89.1771 27.3333 88.7771 27.55C88.3937 27.75 87.9437 27.925 87.4271 28.075C86.9271 28.225 86.4021 28.3 85.8521 28.3ZM93.7765 28.25C93.3098 28.25 92.9681 28.175 92.7515 28.025C92.5515 27.8917 92.4265 27.7083 92.3765 27.475C92.3265 27.2417 92.3015 26.9917 92.3015 26.725V11.8C92.3015 11.5167 92.3265 11.2667 92.3765 11.05C92.4431 10.8167 92.5765 10.6333 92.7765 10.5C92.9931 10.3667 93.3348 10.3 93.8015 10.3C94.2681 10.3 94.6015 10.375 94.8015 10.525C95.0181 10.6583 95.1515 10.8417 95.2015 11.075C95.2681 11.2917 95.3015 11.5417 95.3015 11.825V17.475C95.6348 17.0917 96.0598 16.7417 96.5765 16.425C97.1098 16.0917 97.7515 15.925 98.5015 15.925C99.5181 15.925 100.426 16.175 101.226 16.675C102.026 17.1583 102.66 17.8333 103.126 18.7C103.593 19.5667 103.826 20.5833 103.826 21.75V26.75C103.826 27.0167 103.801 27.2667 103.751 27.5C103.701 27.7167 103.568 27.8917 103.351 28.025C103.151 28.1583 102.818 28.225 102.351 28.225C101.885 28.225 101.543 28.1583 101.326 28.025C101.11 27.8917 100.976 27.7167 100.926 27.5C100.876 27.2667 100.851 27 100.851 26.7V21.725C100.851 21.1417 100.751 20.6333 100.551 20.2C100.351 19.7667 100.051 19.4333 99.6515 19.2C99.2681 18.95 98.7848 18.825 98.2015 18.825C97.4181 18.825 96.7598 19.0583 96.2265 19.525C95.6931 19.975 95.3848 20.5583 95.3015 21.275V26.75C95.3015 27.0167 95.2681 27.2667 95.2015 27.5C95.1515 27.7333 95.0181 27.9167 94.8015 28.05C94.6015 28.1833 94.2598 28.25 93.7765 28.25Z" fill="#3D3A44"/>
</g>
<defs>
<clipPath id="clip0_494_1407">
<path d="M0.343262 0H99.6568C102.97 0 105.657 2.68629 105.657 6V34C105.657 37.3137 102.97 40 99.6568 40H0.343262V0Z" fill="white"/>
</clipPath>
</defs>
</svg>
