<svg width="18" height="22" viewBox="0 0 18 22" fill="none" xmlns="http://www.w3.org/2000/svg">
<path d="M2.00391 9.33496C2.00391 6.1123 4.62598 3.49023 7.84863 3.49023C11.0713 3.49023 13.6934 6.1123 13.6934 9.33496C13.6934 10.668 13.2466 11.8911 12.4922 12.8726L16.0737 16.4761C16.2275 16.6299 16.3154 16.8423 16.3154 17.0767C16.3154 17.5674 15.9712 17.9409 15.4731 17.9409C15.2388 17.9409 15.019 17.8604 14.8506 17.6919L11.2471 14.0811C10.2876 14.7695 9.12305 15.1797 7.84863 15.1797C4.62598 15.1797 2.00391 12.5576 2.00391 9.33496ZM3.25635 9.33496C3.25635 11.8691 5.31445 13.9272 7.84863 13.9272C10.3828 13.9272 12.4409 11.8691 12.4409 9.33496C12.4409 6.80078 10.3828 4.74268 7.84863 4.74268C5.31445 4.74268 3.25635 6.80078 3.25635 9.33496Z" fill="#807F88"/>
</svg>
