<svg width="21" height="21" viewBox="0 0 21 21" fill="none" xmlns="http://www.w3.org/2000/svg">
<path d="M10.709 20.9102C5.2207 20.9102 0.748047 16.4375 0.748047 10.9492C0.748047 5.45117 5.2207 0.988281 10.709 0.988281C16.207 0.988281 20.6699 5.45117 20.6699 10.9492C20.6699 16.4375 16.207 20.9102 10.709 20.9102ZM10.7188 5.87109C10.5039 5.87109 10.3379 5.92969 10.1328 6.13477L6.8125 9.33789C6.65625 9.48438 6.56836 9.65039 6.56836 9.875C6.56836 10.2754 6.88086 10.5781 7.29102 10.5781C7.49609 10.5781 7.71094 10.5 7.85742 10.334L9.39062 8.70312L9.97656 8.08789L9.9082 9.5918V15.2461C9.9082 15.6758 10.2793 16.0273 10.7188 16.0273C11.1582 16.0273 11.5195 15.6758 11.5195 15.2461V9.5918L11.4609 8.08789L12.0371 8.70312L13.5801 10.334C13.7168 10.5 13.9219 10.5781 14.127 10.5781C14.5371 10.5781 14.8594 10.2754 14.8594 9.875C14.8594 9.65039 14.7715 9.48438 14.6152 9.33789L11.3047 6.13477C11.0898 5.92969 10.9238 5.87109 10.7188 5.87109Z" fill="#FFB31A"/>
</svg>
